# xmcd
#
# Track frame offsets:
#	150
#	16087
#	37648
#	55814
#	72552
#	96856
#	118173
#	135516
#	148524
#	164988
#	183086
#	198215
#	212602
#	228378
#	249841
#	266675
#	281046
#	297988
#
# Disc length: 4231 seconds
#
# Revision: 2
# Processed by: cddbd v1.5.2PL0 Copyright (c) Steve Scherf et al.
# Submitted via: audiograbber 1.83.01
#
DISCID=07108512
DTITLE=Various Artist - Now That's What I Call Country - 2008
DYEAR=2008
DGENRE=Country
TTITLE0=Carrie Underwood - All-American Girl
TTITLE1=Rascal Flatts - Winner At A Losing Game
TTITLE2=Gary Allan - Watching Airplanes
TTITLE3=Reba McEntire and Kelly Clarkson - Because Of You (Duet With Kelly Clarks
TTITLE3=on)
TTITLE4=Keith Urban - Everybody
TTITLE5=Sugarland - Stay
TTITLE6=Lady Antebellum - Love Don't Live Here
TTITLE7=Taylor Swift - Picture To Burn
TTITLE8=Dierks Bentley - Trying To Stop Your Leaving
TTITLE9=Luke Bryan - All My Friends Say
TTITLE10=George Strait - I Saw God Today
TTITLE11=Julianne Hough - That Song In My Head
TTITLE12=Sara Evans - As If
TTITLE13=Kenny Chesney - Don't Blink
TTITLE14=Trace Adkins - You're Gonna Miss This
TTITLE15=Kellie Pickler - Things That Never Cross A Man's Mind
TTITLE16=Josh Turner and Trisha Yearwood - Another Try
TTITLE17=Jason Michael Carroll - Alyssa Lies
EXTD=
EXTT0=
EXTT1=
EXTT2=
EXTT3=
EXTT4=
EXTT5=
EXTT6=
EXTT7=
EXTT8=
EXTT9=
EXTT10=
EXTT11=
EXTT12=
EXTT13=
EXTT14=
EXTT15=
EXTT16=
EXTT17=
PLAYORDER=
